<?xml version="1.0" standalone="no"?>
<!DOCTYPE svg PUBLIC "-//W3C//DTD SVG 20010904//EN"
 "http://www.w3.org/TR/2001/REC-SVG-20010904/DTD/svg10.dtd">
<svg version="1.0" xmlns="http://www.w3.org/2000/svg"
 width="260.000000pt" height="260.000000pt" viewBox="0 0 260.000000 260.000000"
 preserveAspectRatio="xMidYMid meet">
<metadata>
Created by potrace 1.11, written by Peter Selinger 2001-2013
</metadata>
<g transform="translate(0.000000,260.000000) scale(0.100000,-0.100000)"
fill="#000000" stroke="none">
<path d="M1198 2511 c-38 -22 -57 -59 -53 -109 5 -67 57 -112 124 -106 48 4
72 19 99 60 13 20 18 33 10 28 -10 -6 -11 -5 -2 7 6 8 10 21 9 29 -17 90 -109
135 -187 91z"/>
<path d="M700 2494 c-42 -15 -121 -68 -128 -86 -2 -5 -9 -14 -16 -21 -53 -54
-66 -189 -26 -273 21 -44 100 -135 100 -116 0 4 4 3 8 -3 11 -15 82 -46 92
-40 5 3 11 2 14 -3 4 -7 59 -7 117 1 81 11 195 116 215 198 11 44 12 130 3
149 -4 8 -13 29 -19 47 -12 33 -82 113 -99 113 -5 0 -17 7 -25 16 -32 31 -169
42 -236 18z"/>
<path d="M1705 2386 c-10 -6 -25 -17 -33 -23 -7 -7 -18 -13 -23 -13 -5 0 -9
-6 -9 -14 0 -8 -4 -16 -9 -18 -17 -6 -21 -86 -6 -122 17 -40 78 -91 100 -83 8
4 17 2 20 -3 5 -8 43 -7 53 1 2 2 18 6 30 8 19 2 61 48 73 76 15 37 18 84 7
91 -5 3 -6 9 -3 13 7 12 -57 82 -80 86 -11 2 -20 4 -20 5 0 9 -84 5 -100 -4z"/>
<path d="M2130 1996 c-5 -5 -10 -7 -10 -3 0 11 -50 -17 -82 -45 -86 -73 -85
-222 2 -293 62 -51 149 -66 221 -37 42 16 99 67 99 88 0 8 4 14 8 14 8 0 12
14 13 53 0 9 4 17 9 17 6 0 5 12 -1 28 -6 15 -9 27 -8 27 1 0 -1 11 -6 25 -12
42 -54 89 -97 111 -45 23 -131 32 -148 15z"/>
<path d="M300 1861 c0 -3 -9 -7 -20 -8 -28 -2 -80 -36 -110 -70 -79 -90 -77
-235 4 -316 29 -29 72 -60 90 -64 6 -1 27 -6 46 -11 102 -25 224 36 275 138
18 35 30 160 15 160 -4 0 -10 12 -13 28 -3 15 -23 45 -44 67 -35 38 -55 51
-108 71 -27 10 -135 15 -135 5z"/>
<path d="M2102 1264 c-30 -15 -56 -32 -59 -40 -3 -8 -8 -12 -12 -10 -4 3 -18
-16 -32 -42 -13 -26 -26 -49 -29 -52 -3 -3 -5 -18 -4 -35 0 -16 -4 -36 -9 -42
-6 -9 -5 -13 2 -13 6 0 10 -3 9 -7 -7 -27 18 -87 52 -126 49 -55 116 -88 181
-89 151 -1 262 109 255 254 -9 172 -196 279 -354 202z"/>
<path d="M350 1070 c-49 -9 -80 -27 -118 -68 -116 -127 -20 -331 156 -329 28
0 52 4 52 8 0 5 6 6 14 3 18 -7 96 54 118 92 32 54 28 173 -6 196 -6 4 -7 8
-2 8 4 0 -7 14 -25 31 -56 52 -118 71 -189 59z"/>
<path d="M1650 704 c-59 -28 -112 -82 -142 -142 -18 -38 -23 -63 -22 -126 0
-52 5 -81 12 -84 7 -2 12 -12 12 -21 0 -45 115 -141 187 -157 40 -8 134 -10
139 -3 2 4 19 10 38 13 19 4 39 13 46 21 7 8 17 15 22 15 13 0 70 60 89 96 28
50 48 174 28 174 -5 0 -6 7 -3 15 3 8 2 20 -2 27 -5 7 -9 15 -9 18 -4 35 -77
115 -130 143 -53 27 -69 31 -145 32 -58 1 -85 -4 -120 -21z"/>
<path d="M753 560 c-13 -5 -23 -7 -23 -5 0 10 -46 -44 -60 -69 -32 -61 -6
-149 55 -185 40 -23 120 -24 157 -1 28 17 75 70 63 70 -4 0 -3 6 2 13 18 23 4
108 -21 132 -49 47 -122 66 -173 45z"/>
<path d="M1290 382 c0 -4 -10 -8 -22 -9 -30 -3 -76 -52 -81 -88 -5 -31 19
-105 33 -105 5 0 15 -7 24 -15 33 -34 141 -11 166 35 32 59 17 128 -33 158
-37 22 -87 36 -87 24z"/>
</g>
</svg>
